<svg xmlns="http://www.w3.org/2000/svg" width="48" height="48">
    <path fill="#388e3c" d="m17.204 19.122-4.907 2.715a.56.56 0 0 0-.297.492v5.433c0 .203.113.39.297.492l4.908 2.717c.183.101.41.101.593 0l4.907-2.717a.57.57 0 0 0 .295-.492v-5.433a.56.56 0 0 0-.297-.492l-4.906-2.715a.61.61 0 0 0-.594 0m25.248 4.891-.818.452a.09.09 0 0 0-.049.082v.906c0 .034.019.065.049.082l.818.453a.1.1 0 0 0 .099 0l.818-.453a.1.1 0 0 0 .049-.082v-.906a.1.1 0 0 0-.05-.082l-.818-.452Q42.526 24 42.5 24a.08.08 0 0 0-.049.013"/>
    <path fill="#37474f" d="m35.751 13.364-2.389-1.333a.243.243 0 0 0-.361.212L33 20.295l-2.203-1.219a.61.61 0 0 0-.594 0h.001l-4.907 2.715a.56.56 0 0 0-.297.491v5.433c0 .203.113.39.297.492l4.908 2.717c.183.101.41.101.593 0l4.907-2.717a.56.56 0 0 0 .295-.492V13.788a.49.49 0 0 0-.249-.424m-2.885 13.094-2.23 1.235a.28.28 0 0 1-.269 0l-2.231-1.235a.26.26 0 0 1-.136-.224v-2.47c0-.092.051-.177.135-.224l2.231-1.234h-.001a.29.29 0 0 1 .27 0l2.23 1.234a.26.26 0 0 1 .135.225v2.47a.26.26 0 0 1-.134.223"/>
    <path fill="#2e7d32" d="M17.204 19.122 12 27.762c0 .203.113.39.297.492l4.908 2.717c.183.101.41.101.593 0L23 22.329a.56.56 0 0 0-.297-.492l-4.906-2.715a.61.61 0 0 0-.594 0"/>
    <path fill="#4caf50" d="m17.204 19.122-4.907 2.715a.56.56 0 0 0-.297.492l5.204 8.642c.183.101.41.101.593 0l4.907-2.717a.56.56 0 0 0 .296-.492l-5.203-8.64a.61.61 0 0 0-.594 0"/>
    <path fill="#37474f" d="m47.703 21.791-4.906-2.715a.61.61 0 0 0-.594 0h.001l-4.907 2.715a.57.57 0 0 0-.297.503v5.411c0 .209.114.402.297.503l4.908 2.717a.61.61 0 0 0 .593 0l2.263-1.253a.3.3 0 0 0-.002-.526l-4.924-2.687a.26.26 0 0 1-.135-.228v-2.466c0-.092.05-.177.13-.221l2.235-1.236h-.001a.29.29 0 0 1 .27 0l2.235 1.237c.08.044.13.129.13.221v2.012a.241.241 0 0 0 .363.208l2.398-1.393a.48.48 0 0 0 .24-.417v-1.88a.58.58 0 0 0-.297-.505m-37 0-4.906-2.715a.61.61 0 0 0-.594 0h.001L.297 21.791a.57.57 0 0 0-.297.503v7.465a.241.241 0 0 0 .363.208l2.398-1.393A.48.48 0 0 0 3 28.157v-4.393c0-.092.05-.177.13-.221l2.235-1.236a.29.29 0 0 1 .27 0l2.235 1.237c.08.044.13.129.13.221v4.393a.48.48 0 0 0 .24.417l2.398 1.393a.25.25 0 0 0 .242.001.25.25 0 0 0 .12-.21v-7.464a.58.58 0 0 0-.297-.504"/>
</svg>